<svg id="Layer_1" data-name="Layer 1" xmlns="http://www.w3.org/2000/svg" viewBox="0 0 278 148"><defs><style>.cls-1,.cls-2{fill:#4d4d4d;}.cls-1{fill-rule:evenodd;}.cls-3{fill:#ff931e;}.cls-4{fill:#f38e1a;stroke-width:2.9px;}.cls-4,.cls-5{stroke:#fff;stroke-miterlimit:10;}.cls-5{fill:none;stroke-linecap:round;stroke-width:6.04px;}</style></defs><title>service-daily-lunch</title><path class="cls-1" d="M240.79,14.52c-11.74.11-16,10.2-16,20.55V67.93h5.3l-4.9,56.13a8.66,8.66,0,0,0,4.8,8.69,9.47,9.47,0,0,0,7.8.15c3.61-1.59,5.18-4.85,5.18-8.68V14.55C242.27,14.54,241.53,14.52,240.79,14.52Zm-1.42,109.69c0,2.28-.81,4.39-3,5.36a5.77,5.77,0,0,1-4.77-.09,5.11,5.11,0,0,1-2.76-5.11l5.24-60.07h-5.63V35.07c0-7.63,2.19-15.79,10.93-16.84Z"/><polygon class="cls-1" points="55.7 17.31 55.7 41.29 52.07 41.29 52.07 17.31 55.7 17.31 55.7 17.31"/><path class="cls-1" d="M60.61,17.31V42c0,4.74-1.88,9.11-6.4,11.11a11.46,11.46,0,0,1-9.17,0c-4.52-2-6.4-6.38-6.4-11.11V17.31H35V42c0,6,2.42,11.37,7.95,14.14l-2.58,67.29c-.15,4,1.52,7.61,5.19,9.36a9.3,9.3,0,0,0,13.31-9.36L56.29,56.09C61.81,53.32,64.24,48,64.24,42V17.31ZM52.12,129.48a6,6,0,0,1-5,0c-1.84-.88-3.23-2.86-3.14-6l2.54-66.17a15.12,15.12,0,0,0,6.19,0l2.54,66.17C55.35,126.62,54,128.6,52.12,129.48Z"/><rect class="cls-2" x="43.53" y="17.31" width="3.63" height="23.98"/><circle class="cls-3" cx="141.76" cy="74" r="65.31"/><circle class="cls-4" cx="141.76" cy="74" r="53.14"/><line class="cls-5" x1="143.19" y1="27.14" x2="143.19" y2="70.8"/><line class="cls-5" x1="157.28" y1="43.32" x2="143.19" y2="70.8"/></svg>