<svg id="Layer_1" data-name="Layer 1" xmlns="http://www.w3.org/2000/svg" viewBox="0 0 278 148"><defs><style>.cls-1{fill:#ff931e;}.cls-2{fill:#ff1d25;}</style></defs><title>service-ads</title><path class="cls-1" d="M142.7,138a1.7,1.7,0,0,1-1.06-.37l-13.86-11.09-15.92,7.86a1.7,1.7,0,0,1-2.34-.91L103.07,117,85.36,115.8a1.7,1.7,0,0,1-1.57-2L86.46,96.3,71.69,86.45A1.7,1.7,0,0,1,71.31,84L82.4,70.11,74.54,54.2a1.7,1.7,0,0,1,.91-2.34L92,45.4l1.15-17.71a1.7,1.7,0,0,1,2-1.57l17.55,2.68L122.49,14a1.7,1.7,0,0,1,2.48-.38l13.86,11.09,15.91-7.86a1.7,1.7,0,0,1,2.34.91l4.85,12.43a1.7,1.7,0,1,1-3.17,1.24l-4.18-10.7-15.22,7.52a1.7,1.7,0,0,1-1.82-.2L124.29,17.46l-9.42,14.12a1.71,1.71,0,0,1-1.67.74L96.41,29.76,95.31,46.7a1.7,1.7,0,0,1-1.08,1.48L78.42,54.35l7.52,15.22a1.7,1.7,0,0,1-.2,1.82L75.13,84.65l14.12,9.42A1.7,1.7,0,0,1,90,95.74l-2.56,16.78,16.94,1.1a1.7,1.7,0,0,1,1.48,1.08L112,130.52,127.24,123a1.7,1.7,0,0,1,1.82.2l13.25,10.61,9.42-14.12a1.72,1.72,0,0,1,1.67-.74l16.78,2.56,1.1-16.94a1.7,1.7,0,0,1,1.08-1.48l15.81-6.17-7.52-15.22a1.7,1.7,0,0,1,.2-1.82l10.61-13.25L177.35,57.2a1.7,1.7,0,0,1-.74-1.67l2.56-16.78L168,38a1.7,1.7,0,0,1,.22-3.4l13.08.85a1.7,1.7,0,0,1,1.57,2L180.15,55l14.76,9.85a1.7,1.7,0,0,1,.38,2.48L184.2,81.16l7.86,15.91a1.7,1.7,0,0,1-.91,2.34l-16.53,6.46-1.15,17.71a1.7,1.7,0,0,1-2,1.57L154,122.48l-9.85,14.77A1.7,1.7,0,0,1,143,138Z"/><path class="cls-2" d="M112.72,106.92a1.7,1.7,0,0,1-1.4-2.68l41.16-59.17a1.7,1.7,0,0,1,2.8,1.95l-41.16,59.17A1.7,1.7,0,0,1,112.72,106.92Z"/><path class="cls-2" d="M118,73.37h0a10.65,10.65,0,0,1-8.87-5.14c-3.73-5.68-3-14.06,1.66-18.67a10.24,10.24,0,0,1,7.2-3.1,10.65,10.65,0,0,1,8.87,5.14c3.73,5.69,3,14.06-1.66,18.67A10.24,10.24,0,0,1,118,73.37Zm0-23.51a6.77,6.77,0,0,0-4.8,2.11c-3.56,3.53-4.1,10-1.21,14.38A7.31,7.31,0,0,0,118,70a6.77,6.77,0,0,0,4.8-2.11c3.56-3.53,4.1-10,1.21-14.39A7.31,7.31,0,0,0,118,49.86Z"/><path class="cls-2" d="M148.62,104.82h0a10.65,10.65,0,0,1-8.87-5.14C136,94,136.77,85.61,141.41,81a10.24,10.24,0,0,1,7.2-3.1A10.65,10.65,0,0,1,157.48,83c3.73,5.68,3,14.06-1.66,18.67A10.24,10.24,0,0,1,148.62,104.82Zm0-23.51a6.77,6.77,0,0,0-4.8,2.11c-3.56,3.53-4.1,10-1.21,14.39a7.32,7.32,0,0,0,6,3.6h0a6.77,6.77,0,0,0,4.8-2.11c3.56-3.53,4.1-10,1.21-14.38A7.31,7.31,0,0,0,148.61,81.31Z"/></svg>