<svg id="Layer_1" data-name="Layer 1" xmlns="http://www.w3.org/2000/svg" viewBox="0 0 278 148"><defs><style>.cls-1{fill:#05a5db;}.cls-2{fill:#138cd6;}.cls-3{fill:#282826;}</style></defs><title>service-leisure</title><path class="cls-1" d="M178.76,112.54a15.07,15.07,0,0,1-10-3.66c-1.93-1.44-3.45-2.58-6.73-2.58s-4.79,1.14-6.72,2.57a15.44,15.44,0,0,1-20,0c-1.93-1.44-3.45-2.57-6.71-2.57s-4.79,1.14-6.72,2.57a15.44,15.44,0,0,1-20,0c-1.93-1.44-3.45-2.57-6.71-2.57s-4.79,1.14-6.71,2.57a15.44,15.44,0,0,1-20,0c-1.93-1.44-3.45-2.57-6.71-2.57a2.73,2.73,0,0,1,0-5.45,15,15,0,0,1,10,3.66c1.93,1.44,3.45,2.57,6.71,2.57s4.79-1.14,6.71-2.57a15.43,15.43,0,0,1,20,0c1.93,1.44,3.45,2.57,6.71,2.57s4.79-1.14,6.72-2.57a15.43,15.43,0,0,1,20,0c1.93,1.44,3.45,2.57,6.71,2.57s4.79-1.14,6.72-2.57a15.45,15.45,0,0,1,20,0c1.93,1.44,3.45,2.57,6.73,2.57s4.8-1.14,6.73-2.58a15.07,15.07,0,0,1,10-3.66,2.73,2.73,0,0,1,0,5.45c-3.27,0-4.8,1.14-6.73,2.58A15.08,15.08,0,0,1,178.76,112.54Z"/><path class="cls-2" d="M115.7,129c-4.18,0-6.33-1.84-8.24-3.47-1.71-1.46-3.19-2.72-6.21-2.72h0a1.56,1.56,0,0,1-1.56-1.55,1.53,1.53,0,0,1,1.59-1.56c4.18,0,6.33,1.84,8.24,3.47,1.71,1.46,3.19,2.76,6.24,2.72s4.52-1.28,6.23-2.76c1.9-1.64,4.05-3.5,8.26-3.52s6.37,1.84,8.28,3.47c1.71,1.47,3.29,2.8,6.24,2.72s4.52-1.28,6.22-2.76c1.9-1.64,4.05-3.5,8.25-3.52h0c4.18,0,6.33,1.84,8.23,3.47,1.71,1.46,3.19,2.72,6.21,2.72h0c3.05,0,4.53-1.28,6.23-2.76,1.9-1.64,4.06-3.5,8.26-3.52h0c4.18,0,6.34,1.84,8.24,3.47,1.71,1.46,3.19,2.72,6.22,2.72h0c3.05,0,4.53-1.28,6.24-2.76,1.9-1.64,4.06-3.5,8.26-3.52h0a1.56,1.56,0,0,1,0,3.12c-3.05,0-4.53,1.28-6.24,2.76-1.9,1.64-4.06,3.5-8.26,3.51h0c-4.18,0-6.34-1.84-8.24-3.47-1.71-1.46-3.19-2.72-6.22-2.72h0c-3.05,0-4.53,1.28-6.23,2.76-1.9,1.64-4.06,3.5-8.26,3.51h0c-4.18,0-6.33-1.84-8.23-3.47-1.71-1.46-3.19-2.72-6.21-2.72h0c-3,0-4.52,1.28-6.23,2.76-1.9,1.64-4.05,3.5-8.25,3.51h0c-4.18,0-6.33-1.84-8.24-3.47-1.71-1.46-3.19-2.72-6.21-2.72h0c-3,0-4.52,1.28-6.23,2.76-1.9,1.64-4.05,3.5-8.26,3.52Z"/><path class="cls-3" d="M167.44,49.91H119.11a1.56,1.56,0,0,1,0-3.12h48.33a1.56,1.56,0,0,1,0,3.12Z"/><path class="cls-3" d="M167.44,74.13H119.11a1.56,1.56,0,0,1,0-3.12h48.33a1.56,1.56,0,0,1,0,3.12Z"/><path class="cls-3" d="M119.11,93.48a2.73,2.73,0,0,1-2.73-2.73V31.48c.13-10.63,7.91-16.63,15.56-17.88s17,2,20.48,12a2.73,2.73,0,1,1-5.15,1.8c-2.62-7.52-9.42-9.23-14.46-8.41s-10.89,4.59-11,12.53V90.75A2.73,2.73,0,0,1,119.11,93.48Z"/><path class="cls-3" d="M167.44,93.48a2.73,2.73,0,0,1-2.73-2.73V31.48c.13-10.63,7.91-16.63,15.56-17.88s17,2,20.48,12a2.73,2.73,0,1,1-5.15,1.8c-2.62-7.52-9.42-9.23-14.46-8.41s-10.89,4.59-11,12.53V90.75A2.73,2.73,0,0,1,167.44,93.48Z"/></svg>