<svg id="Layer_1" data-name="Layer 1" xmlns="http://www.w3.org/2000/svg" viewBox="0 0 278 148"><defs><style>.cls-1{fill:#282826;}.cls-2{fill:#ff931e;}.cls-3{fill:#ff6c42;}.cls-4{fill:#ffbe00;}</style></defs><title>service-festival</title><path class="cls-1" d="M130.37,91.93a7.72,7.72,0,1,1,6.4-3.38h0a7.66,7.66,0,0,1-4.94,3.24A7.8,7.8,0,0,1,130.37,91.93Zm0-12.9a5.28,5.28,0,0,0-1,.09,5.18,5.18,0,1,0,5.25,8h0A5.19,5.19,0,0,0,130.4,79Z"/><path class="cls-1" d="M181.33,34a1.26,1.26,0,0,1-.71-.22l-4.49-3.05a1.27,1.27,0,0,1,1.43-2.1L182,31.72a1.27,1.27,0,0,1-.71,2.32Z"/><path class="cls-1" d="M178.34,38.42a1.26,1.26,0,0,1-.71-.22l-4.49-3.05a1.27,1.27,0,0,1,1.43-2.1l4.49,3.05a1.27,1.27,0,0,1-.71,2.32Z"/><path class="cls-1" d="M175.35,42.82a1.26,1.26,0,0,1-.71-.22l-4.49-3.05a1.27,1.27,0,0,1,1.43-2.1l4.49,3.05a1.27,1.27,0,0,1-.71,2.32Z"/><path class="cls-1" d="M165.69,23.4a1.26,1.26,0,0,1-.71-.22l-4.49-3.05a1.27,1.27,0,0,1,1.43-2.1l4.49,3.05a1.27,1.27,0,0,1-.71,2.32Z"/><path class="cls-1" d="M162.71,27.79a1.26,1.26,0,0,1-.71-.22l-4.49-3.05a1.27,1.27,0,0,1,1.43-2.1l4.49,3.05a1.27,1.27,0,0,1-.71,2.32Z"/><path class="cls-1" d="M159.72,32.18A1.26,1.26,0,0,1,159,32l-4.49-3.05a1.27,1.27,0,0,1,1.43-2.1l4.49,3.05a1.27,1.27,0,0,1-.71,2.32Z"/><path class="cls-2" d="M145.55,73a60.61,60.61,0,0,0-8.23-5.47l2.14-3.89a65.68,65.68,0,0,1,8.92,5.94Z"/><path class="cls-3" d="M119.37,24a1.26,1.26,0,0,0-1-.38L105.93,24.8a1.27,1.27,0,0,0-1.14,1.1l-1.08,8.57a3.8,3.8,0,0,0-1.26-.4,3.84,3.84,0,1,0-1,7.61,3.75,3.75,0,0,0,.48,0,3.8,3.8,0,0,0,3.61-2.76,1.25,1.25,0,0,0,.18-.49v-.1h0l.91-7.22,9.84-1-.34,2.7a3.79,3.79,0,0,0-1.24-.39,3.84,3.84,0,1,0,3.32,4.29c0-.08,0-.16,0-.24l1.45-11.44A1.27,1.27,0,0,0,119.37,24ZM101.8,39.16a1.3,1.3,0,0,1,.16-2.59h.17A1.3,1.3,0,0,1,103.25,38h0A1.29,1.29,0,0,1,101.8,39.16ZM107,28.54l.17-1.31,9.83-.91-.16,1.26Zm7.29,9a1.3,1.3,0,0,1,.16-2.59h.17a1.29,1.29,0,0,1,1.12,1.33h0a1.2,1.2,0,0,0,0,.12,1.29,1.29,0,0,1-.49.86A1.25,1.25,0,0,1,114.29,37.56Z"/><path class="cls-4" d="M110.55,47.1a1.27,1.27,0,0,0-2,.74l-2.26,10a4.25,4.25,0,1,0,1.37,4.91,1.23,1.23,0,0,0,.21-.45l1.72-7.58,2.83,2.06a1.27,1.27,0,0,0,1.49-2L110.22,52l.39-1.71L115,53.54a1.27,1.27,0,0,0,1.51-2Zm-7.13,15.77a1.7,1.7,0,0,1,.37-3.35,1.72,1.72,0,0,1,.38,0,1.7,1.7,0,0,1,1.28,2A1.7,1.7,0,0,1,103.42,62.87Z"/><path class="cls-2" d="M185.87,85.51a1.26,1.26,0,0,0-.48-1,1.28,1.28,0,0,0-1.07-.25l-12.57,2.79a1.27,1.27,0,0,0-1,1.24v9a3.87,3.87,0,0,0-1.38-.26,3.92,3.92,0,1,0,3.9,4.15,1.15,1.15,0,0,0,0-.11V94.74l10-2.28V94a3.88,3.88,0,0,0-1.36-.26,3.92,3.92,0,1,0,3.92,3.92c0-.08,0-.16,0-.24Zm-16.49,16.8a1.38,1.38,0,1,1,1.38-1.38A1.39,1.39,0,0,1,169.39,102.32Zm3.92-10.18V89.32l10-2.23v2.76ZM182,99.06a1.38,1.38,0,1,1,1.36-1.51h0a1.13,1.13,0,0,0,0,.12A1.39,1.39,0,0,1,182,99.06Z"/><path class="cls-1" d="M187.57,61.45l-3.66-4.5a1.27,1.27,0,0,0-2.11.22L178.31,64a3.57,3.57,0,0,0-5.7.93A3.59,3.59,0,0,0,176.92,70a3.54,3.54,0,0,0,1.9-1.54c0-.06.11-.09.15-.16l0-.08h0L183.17,60l2.44,3a1.27,1.27,0,1,0,2-1.6Zm-11.43,6.11a1,1,0,0,1-.81-.06,1.06,1.06,0,0,1-.46-1.43,1,1,0,0,1,.62-.52,1.08,1.08,0,0,1,.33-.05,1,1,0,0,1,.48.12,1.06,1.06,0,0,1,.46,1.42h0A1,1,0,0,1,176.14,67.55Z"/><path class="cls-2" d="M123.93,130.53c-5.51,0-11.87-2.59-19.42-7.76C89.61,112.6,86.28,101.23,94.61,89c3.74-5.5,8.15-6.64,11.7-7.55,4.08-1.05,6.33-1.63,7.23-8.2.76-5.53,3.07-9.36,6.87-11.38,5.66-3,12.67-1,17.23,1l18.84-27.4-.33-2.71a2.21,2.21,0,0,1,.38-1.53l8.8-12.75a2.21,2.21,0,0,1,3.08-.57l11.27,7.76a2.22,2.22,0,0,1,.57,3.09l-8.8,12.75a2.22,2.22,0,0,1-1.28.89l-2.63.67L148.91,70.08c4.66,4.41,7.12,9.61,6.82,14.5-.21,3.28-1.76,8-8,12h0c-5.24,3.34-5,5.47-4.48,9.34.47,3.7,1.06,8.3-3.13,14.41C135.45,127.14,130.23,130.53,123.93,130.53Zm3.12-65.78a9.68,9.68,0,0,0-4.57,1c-2.47,1.31-4,4-4.55,8.06-1.3,9.52-6.2,10.78-10.51,11.89-3.26.84-6.34,1.63-9.14,5.75-6.86,10.1-4.09,18.89,8.73,27.64,14.18,9.69,22.16,9.34,29.46-1.29,3.24-4.71,2.82-7.93,2.39-11.34-.53-4.12-1.12-8.79,6.49-13.64,3.75-2.39,5.75-5.26,6-8.53.25-4-2.21-8.4-6.74-12.16a2.22,2.22,0,0,1-.41-3l20.2-29.37a2.21,2.21,0,0,1,1.28-.89l2.63-.67L175.33,28l-7.62-5.24L160.64,33l.33,2.7a2.22,2.22,0,0,1-.37,1.53L140.22,66.87a2.21,2.21,0,0,1-2.81.73A24.29,24.29,0,0,0,127.05,64.75Z"/></svg>