<svg id="Layer_1" data-name="Layer 1" xmlns="http://www.w3.org/2000/svg" viewBox="0 0 278 148"><defs><style>.cls-1,.cls-2{fill-rule:evenodd;}.cls-2{fill:#ff931e;}.cls-3{fill:#b3b3b3;}.cls-4{fill:#4d4d4d;}</style></defs><title>service-table-order</title><path class="cls-1" d="M209.69,136.64h5.08V11.36h-2.54c-10.5,0-13.91,12.7-13.91,21.3,0,7.77,2.74,19,11.37,21V69.91c-5.06-4-12.68-5.53-19-5.53-9.6,0-24.13,3.79-24.13,15.54v56.73h5.1V84.57h38.07v52.07Z"/><path class="cls-2" d="M209.69,48.27c-4.9-2.38-6.27-10.63-6.27-15.62s1.37-13.23,6.27-15.62V48.27Z"/><path class="cls-2" d="M171.64,79.47h38c-.56-7.83-12.61-10-19-10s-18.45,2.12-19,10Z"/><path class="cls-1" d="M63.23,136.64h5.08V84.57h38.07v52.07h5.1V80c0-11.84-14.47-15.62-24.13-15.62-6.36,0-14,1.49-19,5.53V53.67c8.63-2,11.37-13.24,11.37-21,0-8.59-3.41-21.3-13.9-21.3H63.23V136.64Z"/><path class="cls-2" d="M68.31,17c4.9,2.38,6.27,10.63,6.27,15.62s-1.37,13.23-6.27,15.62V17Z"/><path class="cls-2" d="M68.33,79.47h38c-.56-7.87-12.58-10-19-10S68.89,71.64,68.33,79.47Z"/><polygon class="cls-3" points="184.74 43.99 184.74 38.9 93.27 38.9 93.27 43.99 136.45 43.99 136.45 44 141.55 44 141.55 43.99 184.74 43.99"/><polygon class="cls-4" points="136.45 44 136.45 52 136.45 136.64 141.55 136.64 141.55 52 141.55 44 136.45 44"/></svg>