<svg id="Layer_1" data-name="Layer 1" xmlns="http://www.w3.org/2000/svg" viewBox="0 0 278 148"><defs><style>.cls-1{fill:#666;}.cls-2{fill:#ffbe00;}.cls-3{fill:#ff931e;}.cls-4{fill:#ff1d25;}.cls-5{fill:#333;}</style></defs><title>service-delivery</title><path class="cls-1" d="M115.29,112h58.79a2.55,2.55,0,0,0,0-5.09H115.29a2.55,2.55,0,0,0,0,5.09Z"/><path class="cls-1" d="M67.77,112H79.82a2.55,2.55,0,1,0,0-5.09H67.77a9.38,9.38,0,0,1-9.37-9.27l5.45-68c0-.07,0-.14,0-.2a9.38,9.38,0,0,1,9.37-9.37H130c11,0,11.68,3.93,12.84,11.07A59.73,59.73,0,0,0,144,37a2.55,2.55,0,0,0,2.46,1.89h35.19L203,67.82a2.54,2.54,0,0,0,1.43,1l38.91,9.67a98.48,98.48,0,0,1-3.17,15.94c-2.85,10-5.42,12.47-6.09,12.56H220.28a2.55,2.55,0,0,0,0,5.09h13.79c10,0,14.46-31.27,14.46-35.56A2.55,2.55,0,0,0,246.6,74l-40.06-10L185,34.86a2.54,2.54,0,0,0-2-1H148.48c-.24-1.17-.43-2.34-.62-3.48C146.64,22.8,145.38,15,130,15H73.23A14.48,14.48,0,0,0,58.77,29.36l-5.45,68c0,.07,0,.14,0,.2A14.47,14.47,0,0,0,67.77,112Z"/><path class="cls-1" d="M143.89,72.56A2.52,2.52,0,0,1,144,72l2.28-23.82a2.55,2.55,0,0,1,2.53-2.3h27a2.54,2.54,0,0,1,2.3,1.45c3.82,8,11.15,23.34,11.55,24.14a2.55,2.55,0,0,1-2.28,3.68H146.44A2.54,2.54,0,0,1,143.89,72.56Zm30.28-21.63H151.09L149.26,70h34C180.69,64.57,176,54.67,174.17,50.93Z"/><path class="cls-1" d="M130.88,38.92h15.58a2.55,2.55,0,0,0,0-5.09H130.88a2.55,2.55,0,0,0,0,5.09Z"/><path class="cls-2" d="M35.92,34H86.69a2.55,2.55,0,0,0,0-5.09H35.92a2.55,2.55,0,0,0,0,5.09Z"/><path class="cls-3" d="M39.36,59H59.09a2.55,2.55,0,0,0,0-5.09H39.36a2.55,2.55,0,0,0,0,5.09Z"/><path class="cls-4" d="M32,80.38H66.43a2.55,2.55,0,0,0,0-5.09H32a2.55,2.55,0,0,0,0,5.09Z"/><path class="cls-5" d="M182,112.58A20.42,20.42,0,1,1,202.41,133,20.44,20.44,0,0,1,182,112.58Zm5.09,0a15.32,15.32,0,1,0,15.32-15.33A15.34,15.34,0,0,0,187.09,112.58Z"/><path class="cls-5" d="M77.27,112.58A20.42,20.42,0,1,1,97.69,133,20.44,20.44,0,0,1,77.27,112.58Zm5.09,0A15.33,15.33,0,1,0,97.69,97.26,15.34,15.34,0,0,0,82.36,112.58Z"/></svg>