<svg id="Layer_1" data-name="Layer 1" xmlns="http://www.w3.org/2000/svg" xmlns:xlink="http://www.w3.org/1999/xlink" viewBox="0 0 278 148"><defs><style>.cls-1{fill:#ff931e;}.cls-2{fill:url(#linear-gradient);}.cls-3{fill:url(#linear-gradient-2);}</style><linearGradient id="linear-gradient" x1="122.25" y1="51.68" x2="136.63" y2="78.75" gradientUnits="userSpaceOnUse"><stop offset="0" stop-color="#fff"/><stop offset="0.27" stop-color="#fff" stop-opacity="0.8"/><stop offset="0.73" stop-color="#fff" stop-opacity="0.8"/><stop offset="1" stop-color="#fff" stop-opacity="0"/></linearGradient><linearGradient id="linear-gradient-2" x1="135.72" y1="81.37" x2="152.85" y2="47.02" gradientUnits="userSpaceOnUse"><stop offset="0" stop-color="#fff"/><stop offset="0.33" stop-color="#fff" stop-opacity="0.8"/><stop offset="0.77" stop-color="#fff" stop-opacity="0.8"/><stop offset="1" stop-color="#fff"/></linearGradient></defs><title>service-mobile-order</title><path d="M176.31,76c0-18.62,0-35,0-53.64,0-8-4.12-12.25-12.06-12.28q-12.51,0-25,0h-.45q-12.51,0-25,0c-7.93,0-12.05,4.31-12.06,12.28,0,18.62,0,35,0,53.64s0,31.2,0,49.7c0,7.75,4.39,12.26,12.23,12.29q12.43.05,24.85.05h.45q12.43,0,24.85-.05c7.83,0,12.22-4.54,12.23-12.29C176.31,107.16,176.31,94.46,176.31,76ZM129.79,14h18.42a.89.89,0,1,1,0,1.78H129.79a.89.89,0,1,1,0-1.78ZM139,132.9a3.67,3.67,0,1,1,3.42-3.66A3.67,3.67,0,0,1,139,132.9ZM168,72c0,16.47,0,27.16,0,43.63,0,5.12,0,5.13-5,5.13-7.93,0-15.85,0-23.78,0h-.45c-7.93,0-15.85,0-23.78,0-4.95,0-5,0-5-5.13,0-16.47,0-27.16,0-43.63s.08-31-.06-47.58c0-3.36.75-4.7,4.42-4.66q12.19.13,24.38.12h.45q12.19,0,24.38-.12c3.67,0,4.45,1.29,4.42,4.66C167.88,41,168,55.4,168,72Z"/><path class="cls-1" d="M165.24,71.91c0,15.65,0,25.81,0,41.46,0,4.87,0,4.87-4.49,4.87-7.18,0-14.36,0-21.55,0h-.4c-7.18,0-14.36,0-21.55,0-4.48,0-4.49,0-4.49-4.87,0-15.65,0-25.81,0-41.46s.07-29.43-.06-45.21c0-3.19.68-4.46,4-4.42q11,.13,22.09.12h.4q11,0,22.09-.12c3.33,0,4,1.23,4,4.42C165.17,42.48,165.24,56.14,165.24,71.91Z"/><path class="cls-2" d="M142.46,79,131.67,55.18a5.16,5.16,0,0,0-4.54-3h-.38a5.16,5.16,0,0,0-4.54,3l-2.62,5.77,0,0a1.66,1.66,0,0,1,.89-.93c.92-.38,2.22.54,3.52,3.34,1.81,3.89,2.85,6.22,2.85,6.22l6.21,13.68a5.16,5.16,0,0,0,6.81,2.56h0A5.16,5.16,0,0,0,142.46,79Z"/><path class="cls-3" d="M156.8,53.07l.22-.5c1.18-2.74,1.94-4.42.91-5.18s-8.79-2-11.71,4.23l-.67,1.46h0l-7.66,15.69v0l-.12.2.06,0-1.69,3.71L135,75.12c-1.81,3.89-3.63,4.14-4.4,2.33l-.31-.72-.05,0,2.95,6.5A5.16,5.16,0,0,0,140,85.82h0l.21-.11.07,0,.23-.13a5.11,5.11,0,0,0,2.14-2.33l14.21-30.15Z"/></svg>