<svg id="Layer_1" data-name="Layer 1" xmlns="http://www.w3.org/2000/svg" viewBox="0 0 278 148"><defs><style>.cls-1{fill:#ff931e;}.cls-2{fill:gray;}.cls-3{fill:#282826;}.cls-4{fill:#ff6c42;}.cls-5{fill:#00817f;}</style></defs><title>service-event</title><path class="cls-1" d="M189.09,62.6a32.36,32.36,0,0,1-32.25-32.07,1.41,1.41,0,0,1,1.4-1.43,1.39,1.39,0,0,1,1.42,1.4A29.48,29.48,0,0,0,202,56.8a1.41,1.41,0,1,1,1.22,2.54A32.54,32.54,0,0,1,189.09,62.6Z"/><path class="cls-2" d="M142.71,112.53a2.82,2.82,0,0,0-1.22-1.78l-5.58-3.62a2.83,2.83,0,0,0-3.9.83l-3.77,5.8a2.82,2.82,0,0,0,.83,3.9l.35.23c-2.45,3.16-6.23,6.91-10.63,7.33-3.74.37-7.57-1.86-11.35-6.61-16.8-21.08-35.74-13.34-35.93-13.26a2.47,2.47,0,0,0,1.94,4.55c.16-.07,15.64-6.38,30.13,11.79,4.51,5.65,9.34,8.51,14.39,8.51.44,0,.87,0,1.31-.06,6.31-.61,11.29-5.61,14.3-9.55l1.08.7a2.82,2.82,0,0,0,3.9-.83l3.77-5.8A2.83,2.83,0,0,0,142.71,112.53Z"/><path class="cls-3" d="M146,117.05a2.46,2.46,0,0,1-1.34-.4l-15.37-10a2.47,2.47,0,0,1-.83-3.25l25.93-47.86a2.47,2.47,0,0,1,2.13-1.29,2.43,2.43,0,0,1,2.17,1.21C163,62.92,169.89,67.34,179.55,69a2.47,2.47,0,0,1,1.54,3.94l-33.18,43.15A2.47,2.47,0,0,1,146,117.05Zm-12.11-13.28,11.54,7.5L174.8,73a32.74,32.74,0,0,1-18-11.53Z"/><path class="cls-4" d="M180.88,73a29.22,29.22,0,0,1-28.24-22.31A26.62,26.62,0,0,1,156.18,30c8.2-12.62,25.54-16,38.65-7.45s17.11,25.71,8.91,38.34h0a26.62,26.62,0,0,1-17.53,11.68A28.36,28.36,0,0,1,180.88,73ZM179,22.73a22.09,22.09,0,0,0-18.7,9.92,21.72,21.72,0,0,0-2.87,16.95,24.21,24.21,0,0,0,27.84,18.08,21.72,21.72,0,0,0,14.31-9.51h0c6.72-10.34,3.37-24.47-7.46-31.51A24.07,24.07,0,0,0,179,22.73Z"/><path class="cls-5" d="M164.73,73.49l-4.23-2.75a.71.71,0,0,0-1,.21l-6.67,10.27a.7.7,0,0,0,.21,1l4.23,2.75a.7.7,0,0,0,1-.21l6.67-10.27a.71.71,0,0,0,.1-.53A.7.7,0,0,0,164.73,73.49Z"/></svg>