<svg id="Layer_1" data-name="Layer 1" xmlns="http://www.w3.org/2000/svg" viewBox="0 0 278 148"><defs><style>.cls-1{fill:#ff6c42;}.cls-2{fill:#333;}.cls-3{fill:none;}.cls-4{fill:gray;}</style></defs><title>service-cashier-system</title><path class="cls-1" d="M117.26,82.75a10.73,10.73,0,0,0,1.4,3.94,10.58,10.58,0,0,0,2.72,3,13.2,13.2,0,0,0,3.73,1.92,17.31,17.31,0,0,0,4,.8v3.19a2.22,2.22,0,0,0,.69,1.77,2.26,2.26,0,0,0,1.5.57,2.37,2.37,0,0,0,1.49-.55,2.15,2.15,0,0,0,.76-1.78V92.32a12.19,12.19,0,0,0,3.4-1,8.09,8.09,0,0,0,2.81-2.1,10.28,10.28,0,0,0,2.49-5.95,23,23,0,0,0-.17-3.41,9.31,9.31,0,0,0-1.18-3.53,9.82,9.82,0,0,0-2.82-3,12.75,12.75,0,0,0-4.53-1.93V57.16a5.48,5.48,0,0,1,1.55.88,7.42,7.42,0,0,1,1.57,1.74,7.63,7.63,0,0,1,.94,2.06A12,12,0,0,1,138,64,1.82,1.82,0,0,0,140,65.85c.72,0,1.64-.4,1.94-2.11a11.14,11.14,0,0,0-2.5-7.32,10.2,10.2,0,0,0-5.83-3.3V49.88a2.15,2.15,0,0,0-.76-1.78,2.28,2.28,0,0,0-3,0,2.23,2.23,0,0,0-.69,1.77v3A14.32,14.32,0,0,0,125,54.11a12.92,12.92,0,0,0-3.61,2.55,10.35,10.35,0,0,0-2.3,3.58,9.56,9.56,0,0,0-.59,4.32,11.16,11.16,0,0,0,3.32,7.12,12.79,12.79,0,0,0,7.33,3.16V88.5a9.43,9.43,0,0,1-5.39-2.06,8.14,8.14,0,0,1-2.64-4.25,1.59,1.59,0,0,0-.68-1.31,2.71,2.71,0,0,0-1.32-.38,1.69,1.69,0,0,0-1.65.54,1.81,1.81,0,0,0-.2,1.7Zm6.85-14.66A5.32,5.32,0,0,1,123,66.26a8.78,8.78,0,0,1-.42-1.9A7.33,7.33,0,0,1,123,61.5a7.42,7.42,0,0,1,1.42-2.42,7.53,7.53,0,0,1,2.25-1.61,8.14,8.14,0,0,1,2.49-.69V70.7a11.28,11.28,0,0,1-2.93-1A7.53,7.53,0,0,1,124.11,68.08Zm9.48,20.27V75.58a7.22,7.22,0,0,1,3.55,2.4,8.33,8.33,0,0,1,1.27,5.26h0a5.25,5.25,0,0,1-.22,1.28,5,5,0,0,1-.78,1.58,5.36,5.36,0,0,1-1.63,1.44A7.09,7.09,0,0,1,133.59,88.35Z"/><path class="cls-2" d="M155.06,106H110.15a2.08,2.08,0,0,0,0,4.17h44.92a2.08,2.08,0,0,0,0-4.17Z"/><path class="cls-2" d="M155.06,117.18H110.15a2.08,2.08,0,1,0,0,4.17h44.92a2.08,2.08,0,0,0,0-4.17Z"/><path class="cls-3" d="M181.63,130.84a11.33,11.33,0,0,0,11-9.49h-22A11.33,11.33,0,0,0,181.63,130.84Z"/><path class="cls-3" d="M166.26,36.29H100.53v83a11.41,11.41,0,0,0,11.2,11.58H171.3a15.83,15.83,0,0,1-5-11.58Z"/><path class="cls-3" d="M183.14,31V21.67a4.52,4.52,0,0,0-4.51-4.51H89.68a4.52,4.52,0,0,0-4.51,4.51v29a4.52,4.52,0,0,0,4.51,4.51h6.68v-21a2.08,2.08,0,0,1,2.08-2.08h69.91a2.07,2.07,0,0,1,1.65.83V31Z"/><path class="cls-3" d="M166.26,36.29H100.53v83a11.41,11.41,0,0,0,11.2,11.58H171.3a15.83,15.83,0,0,1-5-11.58Z"/><path class="cls-3" d="M181.63,130.84a11.33,11.33,0,0,0,11-9.49h-22A11.33,11.33,0,0,0,181.63,130.84Z"/><path class="cls-4" d="M194.92,117.18H170.43V72H170V32.94a2.07,2.07,0,0,0-1.65-.83H98.44a2.08,2.08,0,0,0-2.08,2.08v21H96v4.17h.36v59.9A15.58,15.58,0,0,0,111.72,135h69.91A15.58,15.58,0,0,0,197,119.26,2.08,2.08,0,0,0,194.92,117.18Zm-83.19,13.66a11.41,11.41,0,0,1-11.2-11.58v-83h65.74v83a15.83,15.83,0,0,0,5,11.58Zm69.91,0a11.33,11.33,0,0,1-11-9.49h22A11.33,11.33,0,0,1,181.63,130.84Z"/><path class="cls-1" d="M178.62,13H89.68A8.69,8.69,0,0,0,81,21.67v29a8.69,8.69,0,0,0,8.68,8.68H96V55.19H89.68a4.52,4.52,0,0,1-4.51-4.51v-29a4.52,4.52,0,0,1,4.51-4.51h88.94a4.52,4.52,0,0,1,4.51,4.51v29a4.52,4.52,0,0,1-4.51,4.51h-8.19v-21a2.07,2.07,0,0,0-.43-1.26V72h.43V59.36h8.19a8.69,8.69,0,0,0,8.68-8.68v-29A8.69,8.69,0,0,0,178.62,13Z"/></svg>