<svg id="Layer_1" data-name="Layer 1" xmlns="http://www.w3.org/2000/svg" viewBox="0 0 278 148"><defs><style>.cls-1{fill:#121928;}.cls-2{fill:#30b28d;}.cls-3{fill:#ff6c42;}.cls-4{fill:#05a5db;}.cls-5{opacity:0.6;}</style></defs><title>service-statistics</title><path class="cls-1" d="M118,89.29,130,73.59,141.46,58.7a1.84,1.84,0,0,0-.66-2.52,1.89,1.89,0,0,0-2.52.66L126.21,72.55,114.77,87.43a1.84,1.84,0,0,0,.66,2.52,1.89,1.89,0,0,0,2.52-.66Z"/><path class="cls-1" d="M177.58,62.27l12.07-15.71L201.1,31.68a1.84,1.84,0,0,0-.66-2.52,1.89,1.89,0,0,0-2.52.66L185.85,45.53,174.4,60.42a1.84,1.84,0,0,0,.66,2.52,1.89,1.89,0,0,0,2.52-.66Z"/><path class="cls-1" d="M85,104l19.75-3.63h0a1.85,1.85,0,0,0,1.29-2.26,1.88,1.88,0,0,0-2.26-1.29l-19.75,3.63h0a1.85,1.85,0,0,0-1.29,2.26A1.88,1.88,0,0,0,85,104Z"/><path class="cls-1" d="M146.91,58.31,164,68.79l0,0c2,1.24,3.88-1.94,1.86-3.18L148.81,55.15l0,0c-2-1.24-3.88,1.94-1.86,3.18Z"/><path class="cls-2" d="M110.34,90.2a4.18,4.18,0,1,0,4.18,4.18A4.21,4.21,0,0,0,110.34,90.2Z"/><path class="cls-3" d="M142.89,47.89a4.18,4.18,0,1,0,4.18,4.18A4.21,4.21,0,0,0,142.89,47.89Z"/><path class="cls-4" d="M171,63a4.18,4.18,0,1,0,4.18,4.18A4.21,4.21,0,0,0,171,63Z"/><path class="cls-1" d="M72.41,22.51v103a1.84,1.84,0,0,0,3.68,0v-103a1.84,1.84,0,0,0-3.68,0Z"/><path class="cls-1" d="M210.72,116.4H67.28a1.84,1.84,0,0,0,0,3.68H210.72a1.84,1.84,0,0,0,0-3.68Z"/><g class="cls-5"><path class="cls-3" d="M147.07,52.07a4.18,4.18,0,1,1-4.18-4.18,4.22,4.22,0,0,1,4.18,4.18c0,2.37,3.72,2.38,3.68,0a7.86,7.86,0,1,0-.89,3.63,8.09,8.09,0,0,0,.89-3.63C150.8,49.69,147.11,49.7,147.07,52.07Z"/></g><g class="cls-5"><path class="cls-4" d="M175.21,67.22A4.18,4.18,0,1,1,171,63a4.22,4.22,0,0,1,4.18,4.18c0,2.37,3.72,2.38,3.68,0a7.86,7.86,0,1,0-.89,3.63,8.09,8.09,0,0,0,.89-3.63C178.93,64.85,175.25,64.85,175.21,67.22Z"/></g><g class="cls-5"><path class="cls-2" d="M114.52,94.38a4.18,4.18,0,1,1-4.18-4.18,4.22,4.22,0,0,1,4.18,4.18c0,2.37,3.72,2.38,3.68,0a7.86,7.86,0,1,0-.89,3.63,8.09,8.09,0,0,0,.89-3.63C118.24,92,114.56,92,114.52,94.38Z"/></g></svg>