<svg id="Layer_1" data-name="Layer 1" xmlns="http://www.w3.org/2000/svg" viewBox="0 0 278 148"><defs><style>.cls-1{fill:#ff6c42;}.cls-2{fill:#6e6e71;}.cls-3{fill:#fff;}</style></defs><title>service-restaurants</title><path class="cls-1" d="M166.28,58.83A28,28,0,0,0,111,65.16c0,15,25.87,55.64,27,57.36a1.22,1.22,0,0,0,2.06,0c.11-.17,10.92-17.12,18.74-33.12,4-8.2,6.58-14.8,7.65-19.62a21.82,21.82,0,0,0,.59-4.62A28.29,28.29,0,0,0,166.28,58.83Zm-43.11,5.39A15.83,15.83,0,1,1,139,80.05,15.83,15.83,0,0,1,123.17,64.23Z"/><path class="cls-2" d="M217.09,91.46a3.24,3.24,0,0,1-2.3-1L194.4,70.11A37.13,37.13,0,1,1,199,65.5L219.4,85.9a3.26,3.26,0,0,1-2.3,5.56Zm-46.54-80.4a30.61,30.61,0,1,0,21.64,9A30.4,30.4,0,0,0,170.55,11.06Z"/><path class="cls-3" d="M170.55,5.89a35.77,35.77,0,0,1,26.6,59.67l21.28,21.29a1.91,1.91,0,1,1-2.7,2.7L194.46,68.27a35.51,35.51,0,0,1-23.91,9.17h0a35.77,35.77,0,0,1-25.29-61.06A35.53,35.53,0,0,1,170.55,5.89m0,67.72a32,32,0,0,0,0-63.91A32,32,0,0,0,148,64.26a31.75,31.75,0,0,0,22.59,9.36m0-70.43a38.47,38.47,0,0,0-27.2,65.67,38.47,38.47,0,0,0,51,3.06l19.53,19.53a4.61,4.61,0,0,0,6.52-6.52L200.82,65.41A38.47,38.47,0,0,0,170.55,3.19Zm0,67.72a29.25,29.25,0,1,1,20.69-8.57,29.06,29.06,0,0,1-20.69,8.57Z"/></svg>