<svg id="Layer_1" data-name="Layer 1" xmlns="http://www.w3.org/2000/svg" xmlns:xlink="http://www.w3.org/1999/xlink" viewBox="0 0 278 148"><defs><style>.cls-1{fill:none;}.cls-2{fill:#38caff;}.cls-3{clip-path:url(#clip-path);}.cls-4{fill:#9d79ff;opacity:0.64;}.cls-5{fill:#0053f2;opacity:0.5;}.cls-6{fill:#fff;}.cls-7{fill:#254456;fill-rule:evenodd;}</style><clipPath id="clip-path"><path class="cls-1" d="M165.24,71.91c0,15.65,0,25.81,0,41.46,0,4.87,0,4.87-4.49,4.87-7.18,0-14.36,0-21.55,0h-.4c-7.18,0-14.36,0-21.55,0-4.48,0-4.49,0-4.49-4.87,0-15.65,0-25.81,0-41.46s.07-29.43-.06-45.21c0-3.19.68-4.46,4-4.42q11,.13,22.09.12h.4q11,0,22.09-.12c3.33,0,4,1.23,4,4.42C165.17,42.48,165.24,56.14,165.24,71.91Z"/></clipPath></defs><title>service-my-app</title><path class="cls-2" d="M165.24,71.91c0,15.65,0,25.81,0,41.46,0,4.87,0,4.87-4.49,4.87-7.18,0-14.36,0-21.55,0h-.4c-7.18,0-14.36,0-21.55,0-4.48,0-4.49,0-4.49-4.87,0-15.65,0-25.81,0-41.46s.07-29.43-.06-45.21c0-3.19.68-4.46,4-4.42q11,.13,22.09.12h.4q11,0,22.09-.12c3.33,0,4,1.23,4,4.42C165.17,42.48,165.24,56.14,165.24,71.91Z"/><path d="M176.31,76c0-18.62,0-35,0-53.64,0-8-4.12-12.25-12.06-12.28q-12.51,0-25,0h-.45q-12.51,0-25,0c-7.93,0-12.05,4.31-12.06,12.28,0,18.62,0,35,0,53.64s0,31.2,0,49.7c0,7.75,4.39,12.26,12.23,12.29q12.43.05,24.85.05h.45q12.43,0,24.85-.05c7.83,0,12.22-4.54,12.23-12.29C176.31,107.16,176.31,94.46,176.31,76ZM129.79,14h18.42a.89.89,0,1,1,0,1.78H129.79a.89.89,0,1,1,0-1.78ZM139,132.9a3.67,3.67,0,1,1,3.42-3.66A3.67,3.67,0,0,1,139,132.9ZM168,72c0,16.47,0,27.16,0,43.63,0,5.12,0,5.13-5,5.13-7.93,0-15.85,0-23.78,0h-.45c-7.93,0-15.85,0-23.78,0-4.95,0-5,0-5-5.13,0-16.47,0-27.16,0-43.63s.08-31-.06-47.58c0-3.36.75-4.7,4.42-4.66q12.19.13,24.38.12h.45q12.19,0,24.38-.12c3.67,0,4.45,1.29,4.42,4.66C167.88,41,168,55.4,168,72Z"/><g class="cls-3"><circle class="cls-4" cx="148" cy="8" r="29"/><circle class="cls-4" cx="115.5" cy="40.5" r="29"/><circle class="cls-5" cx="159.5" cy="94.5" r="34.5"/><circle class="cls-5" cx="139.5" cy="114.5" r="34.5"/></g><circle class="cls-6" cx="139" cy="67" r="23"/><path class="cls-7" d="M141.24,77.54h6.07l.54-3h-5.46V73.26h5.69l.58-3.23h-.44a7.63,7.63,0,0,1-2.4-.39l.39-1.19a6.33,6.33,0,0,0,1,.24,6.41,6.41,0,0,0,1,.08,6.33,6.33,0,0,0,0-12.67,6.38,6.38,0,0,0-1.21.11,6.28,6.28,0,0,0-.63.16q.06.25.11.51a7.57,7.57,0,0,1-.05,2.88,7.52,7.52,0,0,1-.48,1.5l-1.15-.51a6.28,6.28,0,0,0,.4-1.25,6.34,6.34,0,0,0-2.5-6.46,6.34,6.34,0,0,0-9.94,4.05,6.47,6.47,0,0,0,0,2.41,6.28,6.28,0,0,0,.4,1.25l-1.15.51a7.63,7.63,0,0,1-.65-3.07,7.62,7.62,0,0,1,.11-1.3q0-.25.11-.51a6.27,6.27,0,0,0-.63-.16,6.39,6.39,0,0,0-1.21-.11,6.33,6.33,0,0,0,0,12.67,6.41,6.41,0,0,0,1-.08,6.3,6.3,0,0,0,1-.24l.39,1.19a7.53,7.53,0,0,1-1.18.29,7.64,7.64,0,0,1-1.21.1h-.44l2.17,12.11h15l.6-3.34h-5.85V77.54Zm8.72-7.7-2.43,13.55H130.47L128,69.84a7.59,7.59,0,1,1,4-14.64,7.59,7.59,0,0,1,13.95,0,7.59,7.59,0,1,1,4,14.64Z"/></svg>