<svg id="Layer_1" data-name="Layer 1" xmlns="http://www.w3.org/2000/svg" viewBox="0 0 278 148"><defs><style>.cls-1{fill:#333;}.cls-2{fill:#fff;}.cls-3{fill:#ff931e;}</style></defs><title>service-automation</title><path class="cls-1" d="M138.78,139.42q-12.43,0-24.86-.05c-8.53,0-13.63-5.16-13.64-13.71,0-13,0-23.12,0-34.41V57.76c0-11.7,0-23.08,0-35.44,0-8.8,4.79-13.67,13.47-13.7q11.92,0,23.83,0h2.78c8,0,15.95,0,23.89,0,8.68,0,13.47,4.9,13.47,13.7,0,12.36,0,23.74,0,35.44V91.25c0,11.29,0,21.42,0,34.41,0,8.54-5.1,13.67-13.64,13.71q-12.43.05-24.86.05h-.45ZM139,127a2.25,2.25,0,1,0,2,2.24A2.26,2.26,0,0,0,139,127Zm10.25-7.67H163a11.7,11.7,0,0,0,3.32-.22,12.9,12.9,0,0,0,.22-3.49V72c0-4.4,0-8.65,0-12.82,0-11.6,0-22.56.08-34.77,0-1.48-.15-2.34-.52-2.71a3.52,3.52,0,0,0-2.33-.52h-.14c-7.55.08-15.42.12-24.06.12h-.47l-.17-1.42v1.42h-.47c-8.65,0-16.52,0-24.07-.12h-.14a3.51,3.51,0,0,0-2.33.52c-.37.37-.53,1.23-.52,2.71.1,12.2.09,23.16.08,34.77,0,4.17,0,8.42,0,12.82v43.63a12.44,12.44,0,0,0,.23,3.5,12.15,12.15,0,0,0,3.31.21h34.25Z"/><path class="cls-2" d="M139.22,10h.72q12.15,0,24.3,0c7.93,0,12.05,4.31,12.06,12.28,0,18.62,0,35,0,53.64s0,31.2,0,49.7c0,7.75-4.39,12.26-12.23,12.29q-12.43.05-24.85.05h-.45q-12.43,0-24.85-.05c-7.83,0-12.22-4.54-12.23-12.29,0-18.5,0-31.2,0-49.7s0-35,0-53.64c0-8,4.13-12.25,12.06-12.28q12.15,0,24.3,0h1.16m-9.43,5.79h18.42a.89.89,0,0,0,0-1.78H129.79a.89.89,0,0,0,0,1.78m9.86,4.11h-1.3q-12,0-24-.12h-.16c-3.54,0-4.29,1.34-4.26,4.66.14,16.6.06,31,.06,47.58s0,27.16,0,43.63c0,5.12,0,5.13,5,5.13h.92l22.86,0h.45l22.86,0H163c4.95,0,5,0,5-5.13,0-16.47,0-27.16,0-43.63s-.08-31,.06-47.58c0-3.31-.72-4.66-4.26-4.66h-.16q-12,.13-24,.12m-.65,113a3.67,3.67,0,1,0-3.42-3.66A3.67,3.67,0,0,0,139,132.9m.22-125.73h-1.16c-9.42,0-17.14,0-24.32,0-9.45,0-14.88,5.54-14.88,15.11,0,13.16,0,25.2,0,37.7V91c0,11.38,0,21.57,0,34.65,0,9.29,5.77,15.08,15,15.12,8.13,0,16.5.05,24.87.05h.45c8.41,0,16.77,0,24.87-.05,9.28,0,15-5.84,15-15.12,0-13.08,0-23.26,0-34.65V60.21c0-12.57,0-24.67,0-37.89,0-9.57-5.43-15.08-14.88-15.11-7.17,0-14.9,0-24.32,0h-.72Zm0,15.56h.44c8.6,0,16.44,0,24-.12h.13a4.77,4.77,0,0,1,1.29.13,6.31,6.31,0,0,1,.13,1.67c-.1,12.22-.09,23.19-.08,34.81,0,4.16,0,8.4,0,12.79V85.29c0,9.95,0,18.7,0,30.34,0,.8,0,1.66,0,2.27-.57,0-1.36,0-2.09,0H115c-.73,0-1.52,0-2.09,0,0-.6,0-1.47,0-2.27,0-11.64,0-20.4,0-30.34V72c0-4.39,0-8.62,0-12.78,0-11.62,0-22.6-.08-34.82a6.36,6.36,0,0,1,.13-1.67,4.77,4.77,0,0,1,1.29-.13h.13c7.54.08,15.38.12,24,.12h.88ZM139,130a.83.83,0,1,1,.58-.79.84.84,0,0,1-.58.79Z"/><path class="cls-3" d="M165.24,71.91c0,15.65,0,25.81,0,41.46,0,4.87,0,4.87-4.49,4.87-7.18,0-14.36,0-21.55,0h-.4c-7.18,0-14.36,0-21.55,0-4.48,0-4.49,0-4.49-4.87,0-15.65,0-25.81,0-41.46s.07-29.43-.06-45.21c0-3.19.68-4.46,4-4.42q11,.13,22.09.12h.4q11,0,22.09-.12c3.33,0,4,1.23,4,4.42C165.17,42.48,165.24,56.14,165.24,71.91Z"/><rect class="cls-2" x="118" y="46" width="42" height="42"/><path class="cls-1" d="M133.88,49.13H121.13V61.88h12.75Zm-2.56,10.2h-7.64V51.69h7.64Z"/><path class="cls-1" d="M156.87,49.13H144.12V61.88h12.75Zm-2.55,10.19h-7.64V51.68h7.64Z"/><path class="cls-1" d="M121.13,84.87h12.75V72.12H121.13Zm2.55-10.19h7.64v7.64h-7.64Z"/><polygon class="cls-1" points="154.33 79.77 154.33 79.77 154.33 79.78 154.33 79.77"/><path class="cls-1" d="M156.87,69.55V64.46h-2.55V67h-2.55v5.1h-7.66v2.55h-2.55V72.11H139q0,1.28,0,2.56h2.55v2.55H139V74.67h-2.54v7.66H139V79.78h2.56V77.22h2.55v2.55h2.55v2.55H139v2.54h10.21V79.78h-2.55V77.22h-2.55V74.67h5.11v5.1h5.1V77.22h-2.54V74.66h2.54V69.55Z"/><circle class="cls-1" cx="154.33" cy="77.22" transform="translate(-11.2 126.01) rotate(-43)"/><circle class="cls-1" cx="144.11" cy="72.11" transform="translate(-10.49 117.56) rotate(-42.96)"/><path class="cls-1" d="M141.54,61.88V54.22H139V51.67h2.53V49.13h-5.08v7.66H139v2.55h-2.53v5.09H139c0-.85,0-1.69,0-2.55Z"/><polygon class="cls-1" points="139 67 139 67 139 67 139 67"/><path class="cls-1" d="M139,67h-7.67V64.46h-5.09V67h2.55v2.56h7.67V72.1H139c0-.08,0-.17,0-.25Q139,69.43,139,67Z"/><circle class="cls-1" cx="149.22" cy="79.78" transform="translate(-10.98 134.25) rotate(-46.91)"/><circle class="cls-1" cx="139" cy="82.33" transform="translate(-16.03 127.76) rotate(-46.97)"/><path class="cls-1" d="M146.67,69.54h2.54V64.46h-5.09V67h2.55Z"/><path class="cls-1" d="M121.13,64.46V67h2.54V64.46Z"/><polygon class="cls-1" points="123.67 67 123.67 67 123.67 67 123.67 67"/><path class="cls-1" d="M141.54,64.44H139q0,1.28,0,2.56h2.54Z"/><polygon class="cls-1" points="139 67 139 67 139 67 139 67"/><polygon class="cls-1" points="139.01 64.44 139.01 64.44 139 64.44 139 64.44 139.01 64.44 139.01 64.44 139.01 64.44"/><polygon class="cls-1" points="126.23 67.01 126.24 67.01 126.23 67.01 126.24 67.01 126.24 67 126.23 67 126.23 67.01"/><path class="cls-1" d="M123.67,69.54h2.56c0-.85,0-1.69,0-2.53h-2.56Q123.67,68.27,123.67,69.54Z"/><polygon class="cls-1" points="123.67 67 123.67 67 123.67 67 123.67 67"/><path class="cls-1" d="M144.11,69.57h-2.55v2.54h2.55Z"/><circle class="cls-1" cx="141.56" cy="72.11" transform="translate(-11.16 115.88) rotate(-42.99)"/><circle class="cls-1" cx="139" cy="74.67" transform="translate(-10.55 124.97) rotate(-46.83)"/><polygon class="cls-1" points="139 72.11 139.01 72.1 139 72.1 139 72.11 139.01 72.11 139.01 72.1 139 72.11"/><circle class="cls-1" cx="154.33" cy="74.67" transform="translate(-5.55 136.56) rotate(-46.98)"/><path class="cls-1" d="M156.87,77.22V74.67h-2.54v2.55Z"/><polygon class="cls-1" points="154.33 79.77 154.33 79.78 154.33 79.78 154.33 79.77"/><path class="cls-1" d="M156.87,82.33V79.78h-2.54q0,1.27,0,2.55Z"/><polygon class="cls-1" points="154.33 82.33 154.33 82.33 154.33 82.33 154.33 82.33"/><polygon class="cls-1" points="154.33 82.33 154.33 82.33 154.33 82.33 154.33 82.33"/><path class="cls-1" d="M151.79,84.87h2.54V82.33h-2.54Z"/><path class="cls-1" d="M128.77,54.24h-2.53v2.53h2.53Z"/><path class="cls-1" d="M151.77,54.24h-2.53v2.53h2.53Z"/><path class="cls-1" d="M126.24,79.77h2.53V77.24h-2.53Z"/></svg>