<svg id="Layer_1" data-name="Layer 1" xmlns="http://www.w3.org/2000/svg" viewBox="0 0 278 148"><defs><style>.cls-1{fill:#282826;}.cls-2{fill:#999;}.cls-3{fill:#ff931e;}.cls-4{fill:#ffbe00;}</style></defs><title>service-club</title><path class="cls-1" d="M126.65,131.39a46.93,46.93,0,1,1,46.93-46.93A47,47,0,0,1,126.65,131.39Zm0-89.36a42.43,42.43,0,1,0,42.43,42.43A42.48,42.48,0,0,0,126.65,42Z"/><path class="cls-2" d="M165.14,61.69a1.33,1.33,0,0,1-.3,0,166.67,166.67,0,0,0-75.87,0,1.29,1.29,0,0,1-.59-2.5,169.26,169.26,0,0,1,77,0,1.29,1.29,0,0,1-.29,2.54Z"/><path class="cls-2" d="M168.73,80.76a1.33,1.33,0,0,1-.3,0,180.13,180.13,0,0,0-83.54,0,1.29,1.29,0,0,1-.6-2.5,182.76,182.76,0,0,1,84.74,0,1.29,1.29,0,0,1-.3,2.54Z"/><path class="cls-2" d="M162.22,110a166.72,166.72,0,0,1-72,.08v2.62A168.55,168.55,0,0,0,126,116.61a168.52,168.52,0,0,0,36.2-3.95Z"/><path class="cls-2" d="M126.57,98.86a188.79,188.79,0,0,1-41.91-4.69,1.29,1.29,0,0,1,.57-2.51,187.14,187.14,0,0,0,82.66,0,1.29,1.29,0,1,1,.57,2.51A188.79,188.79,0,0,1,126.57,98.86Z"/><path class="cls-2" d="M151.85,123.27a1.32,1.32,0,0,1-.3,0,1.29,1.29,0,0,1-.95-1.55,159,159,0,0,0,0-74.07,1.29,1.29,0,1,1,2.5-.6,161.64,161.64,0,0,1,0,75.27A1.29,1.29,0,0,1,151.85,123.27Z"/><path class="cls-2" d="M132.47,130.59a1.3,1.3,0,0,1-.29,0,1.29,1.29,0,0,1-1-1.54,202.4,202.4,0,0,0,0-88.65,1.29,1.29,0,1,1,2.51-.57,205,205,0,0,1,0,89.79A1.29,1.29,0,0,1,132.47,130.59Z"/><path class="cls-2" d="M100.45,123a1.29,1.29,0,0,1-1.25-1,169.26,169.26,0,0,1,0-74.76,1.29,1.29,0,1,1,2.51.57,166.66,166.66,0,0,0,0,73.62,1.28,1.28,0,0,1-1,1.54A1.26,1.26,0,0,1,100.45,123Z"/><path class="cls-2" d="M119,130a1.29,1.29,0,0,1-1.26-1,212.89,212.89,0,0,1,0-88.8,1.29,1.29,0,1,1,2.51.54,210.32,210.32,0,0,0,0,87.72,1.29,1.29,0,0,1-1,1.53A1.25,1.25,0,0,1,119,130Z"/><path class="cls-1" d="M133,31.76H128.9V16.61h-4.5V31.76h-4.05a.64.64,0,0,0-.64.64v6.83a.64.64,0,0,0,.64.64H133a.64.64,0,0,0,.64-.64V32.41A.64.64,0,0,0,133,31.76Z"/><path class="cls-3" d="M197.73,42.95C185.35,41,184,39.71,182.12,27.33a.66.66,0,0,0-1.27,0c-1.92,12.38-3.24,13.69-15.62,15.62a.64.64,0,0,0,0,1.27c12.38,1.92,13.69,3.24,15.62,15.62a.64.64,0,0,0,1.27,0c1.92-12.38,3.24-13.69,15.62-15.62a.64.64,0,0,0,0-1.27Z"/><path class="cls-4" d="M170.94,26.34a.64.64,0,0,0,0-1.27c-5.48-.85-6-1.36-6.84-6.84a.66.66,0,0,0-1.27,0c-.85,5.48-1.36,6-6.84,6.84a.64.64,0,0,0,0,1.27c5.48.85,6,1.36,6.84,6.84a.64.64,0,0,0,1.27,0C164.94,27.71,165.46,27.19,170.94,26.34Z"/></svg>