<svg id="Layer_1" data-name="Layer 1" xmlns="http://www.w3.org/2000/svg" xmlns:xlink="http://www.w3.org/1999/xlink" viewBox="0 0 278 148"><defs><style>.cls-1{fill:url(#linear-gradient);}.cls-2{fill:url(#linear-gradient-2);}.cls-3,.cls-4,.cls-5{fill:none;stroke-linecap:round;stroke-linejoin:round;stroke-width:4.26px;}.cls-3{stroke:#414042;}.cls-4{stroke:gray;}.cls-5{stroke:#ff931e;}</style><linearGradient id="linear-gradient" x1="152.12" y1="75.9" x2="158.2" y2="87.34" gradientUnits="userSpaceOnUse"><stop offset="0" stop-color="#ff4831" stop-opacity="0.9"/><stop offset="0.14" stop-color="#ff5c3a" stop-opacity="0.9"/><stop offset="0.28" stop-color="#ff6c42" stop-opacity="0.9"/><stop offset="0.63" stop-color="#ff6c42" stop-opacity="0.87"/><stop offset="0.83" stop-color="#ff4f42"/></linearGradient><linearGradient id="linear-gradient-2" x1="157.19" y1="89.71" x2="165.3" y2="73.46" gradientUnits="userSpaceOnUse"><stop offset="0" stop-color="#ff4831"/><stop offset="0.11" stop-color="#ff5738" stop-opacity="0.96"/><stop offset="0.3" stop-color="#ff6c42" stop-opacity="0.9"/><stop offset="0.64" stop-color="#ff6c42" stop-opacity="0.9"/><stop offset="0.87" stop-color="#ff6c42"/><stop offset="1" stop-color="#ff4a42"/></linearGradient></defs><title>service-book-table</title><path class="cls-1" d="M160.67,87.43l-4.56-10.06a2.18,2.18,0,0,0-1.92-1.27H154a2.18,2.18,0,0,0-1.92,1.27L151,79.82v0a.7.7,0,0,1,.38-.39c.39-.16.94.23,1.49,1.41.77,1.64,1.2,2.63,1.2,2.63l2.63,5.78a2.18,2.18,0,0,0,2.88,1.08h0A2.18,2.18,0,0,0,160.67,87.43Z"/><path class="cls-2" d="M165.73,78.22l0-.05.11-.25.54-1.23c.5-1.16.82-1.87.38-2.19s-3.72-.84-4.95,1.79l-1.31,2.87-1.8,4h0l0,.08h0L158,84.75l-.49,1.06c-.77,1.64-1.53,1.75-1.86,1l-.13-.3h0l1.25,2.75a2.18,2.18,0,0,0,2.88,1.08h0l.09,0,0,0,.1-.05a2.16,2.16,0,0,0,.9-1l5-11Z"/><rect class="cls-3" x="73" y="17.02" width="132" height="106.45" rx="1" ry="1"/><line class="cls-4" x1="81.52" y1="131.98" x2="196.48" y2="131.98"/><line class="cls-4" x1="90.03" y1="139.5" x2="187.97" y2="139.5"/><line class="cls-5" x1="73" y1="38.31" x2="205" y2="38.31"/><line class="cls-4" x1="170.94" y1="8.5" x2="170.94" y2="25.53"/><line class="cls-4" x1="192.23" y1="8.5" x2="192.23" y2="25.53"/><line class="cls-4" x1="85.77" y1="8.5" x2="85.77" y2="25.53"/><line class="cls-4" x1="107.06" y1="8.5" x2="107.06" y2="25.53"/><line class="cls-4" x1="149.65" y1="8.5" x2="149.65" y2="25.53"/><line class="cls-4" x1="128.35" y1="8.5" x2="128.35" y2="25.53"/><polyline class="cls-3" points="94.29 106.44 94.29 110.69 98.55 110.69"/><polyline class="cls-3" points="115.58 106.44 115.58 110.69 119.84 110.69"/><polyline class="cls-3" points="136.87 106.44 136.87 110.69 141.13 110.69"/><polyline class="cls-3" points="158.16 106.44 158.16 110.69 162.42 110.69"/><polyline class="cls-3" points="179.45 106.44 179.45 110.69 183.71 110.69"/><polyline class="cls-3" points="94.29 80.94 94.29 85.19 98.55 85.19"/><polyline class="cls-3" points="115.58 80.94 115.58 85.19 119.84 85.19"/><polyline class="cls-3" points="136.87 80.94 136.87 85.19 141.13 85.19"/><polyline class="cls-3" points="179.45 80.94 179.45 85.19 183.71 85.19"/><polyline class="cls-3" points="94.29 55.44 94.29 59.69 98.55 59.69"/><polyline class="cls-3" points="115.58 55.44 115.58 59.69 119.84 59.69"/><polyline class="cls-3" points="136.87 55.44 136.87 59.69 141.13 59.69"/><polyline class="cls-3" points="158.16 55.44 158.16 59.69 162.42 59.69"/><polyline class="cls-3" points="179.45 55.44 179.45 59.69 183.71 59.69"/></svg>